# xmcd
#
# Track frame offsets: 
#        150
#        12492
#        30017
#        47140
#        62375
#        71370
#        83910
#        100270
#        114495
#        125617
#        134082
#        146500
#        165890
#        172997
#        188785
#        204845
#        220372
#        233557
#        250930
#        271417
#        286400
#        304092
#        315525
#
# Disc length: 4440 seconds
#
# Revision: 18
# Processed by: cddbd v1.5.2PL0 Copyright (c) Steve Scherf et al.
# Submitted via: ExactAudioCopyFreeDBPlugin 1.0
#
DISCID=3b115617
DTITLE=Tom Waits - Beautiful Maladies - The Island Years
DYEAR=1998
DGENRE=Rock
TTITLE0=Hang on St. Christopher
TTITLE1=Temptation
TTITLE2=Clap Hands
TTITLE3=The Black Rider
TTITLE4=Underground
TTITLE5=Jockey Full of Bourbon
TTITLE6=Earth Died Screaming
TTITLE7=Innocent When You Dream
TTITLE8=Straight to the Top
TTITLE9=Frank's Wild Years
TTITLE10=Singapore
TTITLE11=Shore Leave
TTITLE12=Johnsburg, Illinois
TTITLE13=Way Down in the Hole
TTITLE14=Strange Weather (Live)
TTITLE15=Cold, Cold Ground (Live)
TTITLE16=November
TTITLE17=Downtown Train
TTITLE18=16 Shells From a Thirty-Ought Six
TTITLE19=Jesus Gonna Be Here
TTITLE20=Good Old World (Waltz)
TTITLE21=I Don't Wanna Grow Up
TTITLE22=Time
EXTD=Produced by Tom WaitsIsland Records 1998Tom Waits - piano,banjo, 
EXTD=vocalGreg Cohen - bass, accordionDon Neely - musicalsawMastered b
EXTD=y Andrew Nicholas at Polygram Studios at Edison,NJ
EXTT0=
EXTT1=
EXTT2=
EXTT3=
EXTT4=
EXTT5=
EXTT6=
EXTT7=
EXTT8=
EXTT9=
EXTT10=
EXTT11=
EXTT12=
EXTT13=
EXTT14=
EXTT15=
EXTT16=
EXTT17=
EXTT18=
EXTT19=
EXTT20=
EXTT21=
EXTT22=
PLAYORDER=
